<svg xmlns="http://www.w3.org/2000/svg" width="123" height="93"><defs><clipPath id="prefix__a"><path d="M0 0h123v93H0z"/></clipPath></defs><g data-name="Watch 38mm – 1" clip-path="url(#prefix__a)"><path fill="#fff" d="M0 0h123v93H0z"/><g data-name="Group 1" fill="#e08709"><path data-name="Path 1" d="M79.054 37.526v-18.6C79.054 8.491 69.811 0 58.447 0S37.838 8.491 37.838 18.928v18.6H23V93h72.54V37.526zm-37.919-18.6c0-8.638 7.765-15.665 17.311-15.665s17.311 7.028 17.311 15.665v18.6H41.135zm51.112 70.811H26.299v-6.526h65.948zm-65.948-9.79V40.79h65.948v39.157z"/><path data-name="Path 2" d="M59.27 50.579a6.568 6.568 0 00-6.595 6.523v9.791a6.595 6.595 0 1013.189 0v-9.791a6.568 6.568 0 00-6.595-6.523zm3.3 16.316a3.3 3.3 0 11-6.6 0v-9.793a3.3 3.3 0 116.6 0z"/></g></g></svg>